<svg width="86" height="26" viewBox="0 0 86 26" fill="none" xmlns="http://www.w3.org/2000/svg">
<path d="M8.512 20.748C6.75733 20.748 5.25467 20.4587 4.004 19.88C2.772 19.2827 1.81067 18.424 1.12 17.304C0.448 16.1653 0.084 14.7933 0.028 13.188C0.00933336 12.3853 0 11.5267 0 10.612C0 9.69733 0.00933336 8.82933 0.028 8.008C0.084 6.44 0.448 5.10533 1.12 4.004C1.81067 2.90267 2.78133 2.06267 4.032 1.484C5.30133 0.886666 6.79467 0.587999 8.512 0.587999C9.89333 0.587999 11.1067 0.765332 12.152 1.12C13.1973 1.47467 14.0747 1.94133 14.784 2.52C15.4933 3.08 16.0347 3.696 16.408 4.368C16.7813 5.04 16.9773 5.684 16.996 6.3C16.996 6.468 16.94 6.61733 16.828 6.748C16.716 6.86 16.5667 6.916 16.38 6.916H12.908C12.7213 6.916 12.572 6.87867 12.46 6.804C12.3667 6.72933 12.2827 6.61733 12.208 6.468C12.0773 6.132 11.8627 5.796 11.564 5.46C11.284 5.10533 10.9013 4.80667 10.416 4.564C9.93067 4.32133 9.296 4.2 8.512 4.2C7.336 4.2 6.40267 4.508 5.712 5.124C5.04 5.74 4.676 6.748 4.62 8.148C4.564 9.75333 4.564 11.3867 4.62 13.048C4.676 14.504 5.04933 15.5493 5.74 16.184C6.44933 16.8187 7.392 17.136 8.568 17.136C9.33333 17.136 10.0147 17.0053 10.612 16.744C11.228 16.464 11.7133 16.0347 12.068 15.456C12.4227 14.8773 12.6 14.14 12.6 13.244V12.544H9.548C9.36133 12.544 9.20267 12.4787 9.072 12.348C8.94133 12.1987 8.876 12.0307 8.876 11.844V10.052C8.876 9.84667 8.94133 9.67867 9.072 9.548C9.20267 9.41733 9.36133 9.352 9.548 9.352H16.408C16.6133 9.352 16.7813 9.41733 16.912 9.548C17.0427 9.67867 17.108 9.84667 17.108 10.052V13.104C17.108 14.7093 16.7533 16.0813 16.044 17.22C15.3533 18.3587 14.3547 19.236 13.048 19.852C11.76 20.4493 10.248 20.748 8.512 20.748Z" fill="white"/>
<path d="M26.8789 20.748C25.3296 20.748 24.0322 20.496 22.9869 19.992C21.9416 19.4693 21.1389 18.732 20.5789 17.78C20.0376 16.828 19.7389 15.7173 19.6829 14.448C19.6642 14.0747 19.6549 13.6547 19.6549 13.188C19.6549 12.7027 19.6642 12.2827 19.6829 11.928C19.7389 10.64 20.0562 9.52933 20.6349 8.596C21.2136 7.644 22.0256 6.916 23.0709 6.412C24.1162 5.88933 25.3856 5.628 26.8789 5.628C28.3536 5.628 29.6136 5.88933 30.6589 6.412C31.7042 6.916 32.5162 7.644 33.0949 8.596C33.6736 9.52933 33.9909 10.64 34.0469 11.928C34.0842 12.2827 34.1029 12.7027 34.1029 13.188C34.1029 13.6547 34.0842 14.0747 34.0469 14.448C33.9909 15.7173 33.6829 16.828 33.1229 17.78C32.5816 18.732 31.7882 19.4693 30.7429 19.992C29.6976 20.496 28.4096 20.748 26.8789 20.748ZM26.8789 17.668C27.7936 17.668 28.4842 17.388 28.9509 16.828C29.4176 16.2493 29.6696 15.4093 29.7069 14.308C29.7256 14.028 29.7349 13.6547 29.7349 13.188C29.7349 12.7213 29.7256 12.348 29.7069 12.068C29.6696 10.9853 29.4176 10.1547 28.9509 9.576C28.4842 8.99733 27.7936 8.708 26.8789 8.708C25.9642 8.708 25.2642 8.99733 24.7789 9.576C24.3122 10.1547 24.0602 10.9853 24.0229 12.068C24.0042 12.348 23.9949 12.7213 23.9949 13.188C23.9949 13.6547 24.0042 14.028 24.0229 14.308C24.0602 15.4093 24.3122 16.2493 24.7789 16.828C25.2642 17.388 25.9642 17.668 26.8789 17.668Z" fill="white"/>
<path d="M39.8357 20.468C39.6304 20.468 39.4624 20.4027 39.3317 20.272C39.201 20.1413 39.1357 19.9733 39.1357 19.768V4.76H34.0397C33.853 4.76 33.6944 4.69467 33.5637 4.564C33.433 4.43333 33.3677 4.27467 33.3677 4.088V1.568C33.3677 1.36267 33.433 1.19467 33.5637 1.064C33.6944 0.933333 33.853 0.867999 34.0397 0.867999H48.7117C48.917 0.867999 49.085 0.933333 49.2157 1.064C49.3464 1.19467 49.4117 1.36267 49.4117 1.568V4.088C49.4117 4.27467 49.3464 4.43333 49.2157 4.564C49.085 4.69467 48.917 4.76 48.7117 4.76H43.6437V19.768C43.6437 19.9733 43.5784 20.1413 43.4477 20.272C43.317 20.4027 43.149 20.468 42.9437 20.468H39.8357Z" fill="white"/>
<path d="M50.801 20.468C50.6143 20.468 50.4556 20.4027 50.325 20.272C50.1943 20.1413 50.129 19.9733 50.129 19.768V6.608C50.129 6.42133 50.1943 6.26267 50.325 6.132C50.4556 5.98267 50.6143 5.908 50.801 5.908H53.545C53.7316 5.908 53.8903 5.98267 54.021 6.132C54.1703 6.26267 54.245 6.42133 54.245 6.608V7.728C54.7116 7.14933 55.281 6.70133 55.953 6.384C56.6436 6.06667 57.437 5.908 58.333 5.908H59.537C59.7236 5.908 59.8823 5.97333 60.013 6.104C60.1436 6.23467 60.209 6.40267 60.209 6.608V9.016C60.209 9.22133 60.1436 9.38933 60.013 9.52C59.8823 9.65067 59.7236 9.716 59.537 9.716H57.073C56.2516 9.716 55.6076 9.94933 55.141 10.416C54.6743 10.864 54.441 11.508 54.441 12.348V19.768C54.441 19.9733 54.3756 20.1413 54.245 20.272C54.1143 20.4027 53.9463 20.468 53.741 20.468H50.801Z" fill="white"/>
<path d="M62.9689 20.468C62.7823 20.468 62.6236 20.4027 62.4929 20.272C62.3623 20.1413 62.2969 19.9733 62.2969 19.768V6.608C62.2969 6.40267 62.3623 6.23467 62.4929 6.104C62.6236 5.97333 62.7823 5.908 62.9689 5.908H65.7689C65.9743 5.908 66.1423 5.97333 66.2729 6.104C66.4036 6.23467 66.4689 6.40267 66.4689 6.608V19.768C66.4689 19.9733 66.4036 20.1413 66.2729 20.272C66.1423 20.4027 65.9743 20.468 65.7689 20.468H62.9689ZM62.8849 3.668C62.6983 3.668 62.5396 3.60267 62.4089 3.472C62.2783 3.34133 62.2129 3.17333 62.2129 2.968V0.727999C62.2129 0.522666 62.2783 0.354666 62.4089 0.223999C62.5396 0.0746665 62.6983 0 62.8849 0H65.8249C66.0303 0 66.1983 0.0746665 66.3289 0.223999C66.4783 0.354666 66.5529 0.522666 66.5529 0.727999V2.968C66.5529 3.17333 66.4783 3.34133 66.3289 3.472C66.1983 3.60267 66.0303 3.668 65.8249 3.668H62.8849Z" fill="white"/>
<path d="M71.3915 25.788C71.1861 25.788 71.0181 25.7227 70.8875 25.592C70.7568 25.4613 70.6915 25.2933 70.6915 25.088V6.608C70.6915 6.40267 70.7568 6.23467 70.8875 6.104C71.0181 5.97333 71.1861 5.908 71.3915 5.908H74.0515C74.2568 5.908 74.4248 5.97333 74.5555 6.104C74.6861 6.23467 74.7515 6.40267 74.7515 6.608V7.672C75.1995 7.07467 75.7781 6.58933 76.4875 6.216C77.1968 5.824 78.0835 5.628 79.1475 5.628C80.1181 5.628 80.9581 5.78667 81.6675 6.104C82.3955 6.40267 83.0021 6.84133 83.4875 7.42C83.9915 7.98 84.3741 8.66133 84.6355 9.464C84.9155 10.2667 85.0741 11.172 85.1115 12.18C85.1301 12.5347 85.1395 12.8707 85.1395 13.188C85.1395 13.5053 85.1301 13.8507 85.1115 14.224C85.0928 15.176 84.9435 16.0533 84.6635 16.856C84.4021 17.6587 84.0195 18.3493 83.5155 18.928C83.0115 19.5067 82.3955 19.9547 81.6675 20.272C80.9581 20.5893 80.1181 20.748 79.1475 20.748C78.1955 20.748 77.3648 20.58 76.6555 20.244C75.9648 19.8893 75.3955 19.4133 74.9475 18.816V25.088C74.9475 25.2933 74.8821 25.4613 74.7515 25.592C74.6208 25.7227 74.4621 25.788 74.2755 25.788H71.3915ZM77.8875 17.388C78.5968 17.388 79.1568 17.2387 79.5675 16.94C79.9781 16.6227 80.2675 16.212 80.4355 15.708C80.6221 15.204 80.7341 14.6533 80.7715 14.056C80.8088 13.4773 80.8088 12.8987 80.7715 12.32C80.7341 11.7227 80.6221 11.172 80.4355 10.668C80.2675 10.164 79.9781 9.76267 79.5675 9.464C79.1568 9.14667 78.5968 8.988 77.8875 8.988C77.1968 8.988 76.6368 9.14667 76.2075 9.464C75.7781 9.78133 75.4701 10.1827 75.2835 10.668C75.0968 11.1533 74.9848 11.676 74.9475 12.236C74.9288 12.572 74.9195 12.9173 74.9195 13.272C74.9195 13.6267 74.9288 13.9813 74.9475 14.336C74.9661 14.8587 75.0781 15.3533 75.2835 15.82C75.5075 16.268 75.8248 16.6413 76.2355 16.94C76.6648 17.2387 77.2155 17.388 77.8875 17.388Z" fill="white"/>
</svg>
